<?xml version="1.0" encoding="UTF-8" standalone="no"?><!DOCTYPE svg PUBLIC "-//W3C//DTD SVG 1.1//EN" "http://www.w3.org/Graphics/SVG/1.1/DTD/svg11.dtd"><svg width="100%" height="100%" viewBox="0 0 3355 1646" version="1.1" xmlns="http://www.w3.org/2000/svg" xmlns:xlink="http://www.w3.org/1999/xlink" xml:space="preserve" xmlns:serif="http://www.serif.com/" style="fill-rule:evenodd;clip-rule:evenodd;stroke-linejoin:round;stroke-miterlimit:2;"><g><path d="M0,1084.69l97.007,-13.336c0,0 127.235,-68.596 201.719,-174.109l163.124,-128.994c0,0 96.632,-108.426 117.367,-147.417c0,0 47.506,-162.047 38.427,-241.371c0,0 22.553,-157.711 121.397,-135.435c0,0 13.801,138.872 48.909,187.08c0,0 7.863,117.435 -53.443,179.107c0,0 37.637,-57.829 84.481,-68.567c0,0 98.489,-64.24 124.934,-99.654c0,0 218.908,-150.707 243.446,-197.403c0,0 389.968,-504.584 1221.08,-64.279c0,0 156.65,93.717 175.044,126.425c18.394,32.708 108.575,-34.881 350.332,575.651c0,0 -7.182,1.867 24.844,36.303c0,0 -5.705,66.214 395.879,266.783l-36.327,5.483c0,0 -91.072,-3.952 -225.836,-50.691c0,0 -121.635,-83.088 -233.519,-95.228c0,0 -98.913,-40.651 -198.775,-191.15c0,0 -81.36,-70.453 -132.501,-70.463c0,0 -112.97,-3.24 -218.572,488.097c0,0 -159.617,185.361 -92.196,320.321c0,0 -43.248,32.431 -69.574,49.165c0,0 -5.848,7.548 -3.339,-54.875c0,0 -53.137,25.24 -53.137,59.815l-144.196,-3.092l-134.457,-2.223c0,0 -32.846,-12.773 -13.089,-39.129c0,0 39.939,-71.945 153.226,-58.737c0,0 8.535,41.835 97.995,-73.733c0,0 10.006,-32.28 41.835,-123.927c0,0 40.65,-114.531 -131.789,-324.45c0,0 -28.687,-15.666 -42.764,-72.685c-4.531,-18.352 -9.011,-55.878 -13.323,-105.488c-5.957,-68.525 1.997,-142.207 -6.093,-135.304c-2.134,1.821 -2.776,38.629 -3.15,110.203c-0.175,33.419 9.304,87.979 11.575,121.379c1.698,24.97 -12.991,33.746 -13.877,34.454c-40.986,32.761 -107.972,75.735 -148.184,45.851c0,0 -111.576,-13.961 -192.568,49.634c-3.912,3.072 -25.557,-33.752 -31.148,-77.213c-5.455,-42.413 -58.559,-65.339 -36.403,-47.376c9.592,7.777 9.845,7.938 21.754,29.97c17.809,32.945 25.452,87.643 19.703,112.511c0,0 -2.409,-43.166 12.23,239.409c0,0 36.166,53.512 45.017,94.567c0,0 -29.636,20.232 -13.218,153.839l-39.978,-28.866l-22.839,28.204l-24.281,0.563l-0.692,-23.817l-46.567,44.068c0,0 -34.427,-4.238 -70.651,14.699c0,0 -10.422,-14.729 -97.837,-14.383c0,0 -67.777,-15.638 147.842,-96.849c0,0 83.542,-77.072 -76.628,-210.017c0,0 -154.381,-346.4 -552.535,-284.857c0,0 -184.215,-44.414 -281.291,98.488c0,0 -152.129,27.028 -300.01,121.151c0,0 -27.176,27.412 -62.245,12.437l-26.079,-23.432l-45.817,11.469c0,0 -29.695,-17.06 -65.998,-103.774l-4.244,-34.802Z" style="fill:#fe4d02;"/><path d="M346.715,1553.64l65.355,1.262l11.426,12.555l110.829,0.366l49.04,-6.984c0,0 28.891,-34.293 53.457,-48.188c0,0 20.725,4.841 41.687,-0.76c0,0 44.647,-33.707 66.314,-68.897l4.505,-40.981c0,0 87.003,-61.03 115.732,-59.618c0,0 124.177,-108.218 214.406,-238.722l53.579,-30.379c0,0 -120.716,-101.474 -351.998,-63.275c0,0 -49.081,152.109 -140.061,336.253c0,0 -97.569,92.288 -99.217,111.02c0,0 -69.126,10.62 -84.807,29.602l-60.369,2.549l-19.413,9.507l-29.515,16.125l17.898,12.489l-18.848,26.076Z" style="fill:#fe4d02;"/><path d="M2618.7,827.619c0,0 -67.219,-35.363 -90.645,-32.704c0,0 -105.989,2.558 -207.845,480.865c0,0 9.24,70.22 4.968,98.461c0,0 -78.417,105.436 -121.562,129.744c0.464,30.939 3.849,57.059 12.707,74.151l122.137,-3.188c0,0 60.727,-102.445 77.58,-99.565l-12.558,84.515l17.445,-0.768l67.165,-94.913l-0.009,-103.425l-15.529,-32.486c0,0 -10.918,-95.139 6.645,-133.845c0,0 44.968,-59.122 -15.958,-189.31c0,0 46.143,-47.056 82.422,-133.321l73.037,-44.211Z" style="fill:#fe4d02;"/><path d="M584.68,593.192c0,0 -3.09,-120.866 -9.946,-189.717c-6.856,-68.851 -36.455,-9.598 -14.515,-178.947c0,0 26.982,-73.939 72.988,-83.857c0,0 11.617,17 11.245,36.138c0,0 0.318,13.617 27.898,75.357c0,0 -41.24,39.917 -60.774,123.52c0,0 4.927,78.186 -3.279,105.455c0,0 -22.035,89.562 -23.617,112.051Z" style="fill:#fe4d02;"/></g></svg>